<?xml version="1.0" encoding="utf-8"?>
<svg viewBox="0.0999 0 403.3248 403.3248" width="403.3248" height="403.3248" xmlns="http://www.w3.org/2000/svg">
  <defs/>
  <g transform="matrix(3.8153534304770473, 0, 0, 3.8153534304770473, 0.0998787999153592, 0.000011499051254304504)">
    <path d="M0 52.856c0-29.191 23.664-52.856 52.856-52.856 29.191 0 52.856 23.664 52.855 52.856 0 29.191-23.664 52.856-52.855 52.855-29.191 0-52.856-23.664-52.856-52.855zM52.856 101.456c26.841 0 48.6-21.759 48.6-48.6 0-26.841-21.759-48.6-48.6-48.601-26.841 0-48.6 21.759-48.601 48.601 0 26.841 21.759 48.6 48.601 48.6z" data-fill-palette-color="tertiary" fill="#000000" stroke="transparent"/>
  </g>
  <path class="cls-1" d="M95 40A3.83 3.83 0 0 1 94.06 42.92 18 18 0 0 1 71.9 48.27 3.7 3.7 0 0 0 68.03 48.93 13.8 13.8 0 0 0 65.44 52.16 34.23 34.23 0 0 1 41.92 66.63 34.23 34.23 0 0 1 15.47 58.72C13.95 57.41 11.82 55.87 10.16 57.01 9.16 57.68 8.93 59.01 8.47 60.01S6.85 62.17 5.78 61.68C4.47 61.14 4.91 59.2 5.6 58A49.65 49.65 0 0 1 23.54 39.24 43.3 43.3 0 0 1 48.67 33.24C56.67 33.85 64.23 36.8 71.52 40.09A33.8 33.8 0 0 0 78.61 42.71 10.4 10.4 0 0 0 86 41.74C87.58 40.8 88.8 39.3 90.48 38.53S94.61 38.23 95 40M50.89 55.53A14.2 14.2 0 0 1 46.18 58.86C41.18 61.18 35.18 61.57 30.28 59.02S22.18 50.69 23.41 45.33A32.8 32.8 0 0 0 12.35 54.28C15.2 55.61 17.61 57.71 20.29 59.35A30.38 30.38 0 0 0 45.41 62 34.53 34.53 0 0 0 64.7 45.42 64.5 64.5 0 0 0 51.91 41C54.29 45.58 54.31 51.67 50.89 55.53" fill="#EF5B2A" data-fill-palette-color="accent" transform="matrix(2.5697529279695037, 0, 0, 2.5697529279695037, 73.33105848830246, 73.1322438774992)"/>
</svg>