<?xml version="1.0" encoding="utf-8"?>
<svg version="1.1" width="2000" height="404" viewBox="0 0 2000 404" xmlns="http://www.w3.org/2000/svg">
  <defs/>
  <g transform="matrix(1,0,0,1,-1.2121212121212466,-0.33738366094434014)">
    <svg viewBox="0 0 396 80" data-background-color="#ffffff" preserveAspectRatio="xMidYMid meet" height="404" width="2000" xmlns="http://www.w3.org/2000/svg">
      <g id="tight-bounds" transform="matrix(1,0,0,1,0.2400000000000091,0.06680864573155532)">
        <svg viewBox="0 0 395.52 79.86638270853688" height="79.86638270853688" width="395.52">
          <g>
            <svg viewBox="0 0 523.510081657668 105.71110571765956" height="79.86638270853688" width="395.52">
              <g transform="matrix(1,0,0,1,127.99008165766809,15.967343174202938)">
                <svg viewBox="0 0 395.52 73.77641936925369" height="73.77641936925369" width="395.52">
                  <g id="textblocktransform">
                    <svg viewBox="0 0 395.52 73.77641936925369" height="73.77641936925369" width="395.52" id="textblock">
                      <g>
                        <rect width="75.54432" height="4.255284404541628" y="63.92332382355757" fill="#000000" data-fill-palette-color="tertiary"/>
                        <rect width="75.54432" height="4.255284404541628" y="63.92332382355757" x="319.97568" fill="#000000" data-fill-palette-color="tertiary"/>
                      </g>
                      <g>
                        <svg viewBox="0 0 395.52 47.18602471239881" height="47.18602471239881" width="395.52">
                          <g transform="matrix(1,0,0,1,0,0)">
                            <svg width="395.52" viewBox="2.65 -34.43 293.35 35.01" height="47.18602471239881" data-palette-color="#ef5b2a">
                              <path d="M27.35-22.8L22.93-22.8 21.45-11.73 25.5-11.73 25.5-8.47 20.98-8.47 19.93 0 16.32 0 17.45-8.47 10.18-8.47 9.08 0 5.48 0 6.6-8.47 2.65-8.47 2.65-11.73 7.03-11.73 8.55-22.8 4.5-22.8 4.5-26.08 8.97-26.08 10.08-34.43 13.68-34.43 12.48-26.08 19.83-26.08 20.93-34.43 24.53-34.43 23.35-26.08 27.35-26.08 27.35-22.8ZM12.08-22.8L10.6-11.73 17.88-11.73 19.4-22.8 12.08-22.8ZM53.2-23.8L53.2-23.8Q53.2-26.48 52.15-28.04 51.1-29.6 49.27-30.29 47.45-30.98 45.1-30.98L45.1-30.98 40.12-30.98 40.12-16.28 44.92-16.28Q47.35-16.28 49.2-16.94 51.05-17.6 52.12-19.24 53.2-20.88 53.2-23.8ZM57.85-23.85L57.85-23.85Q57.85-19.83 56.14-17.4 54.42-14.98 51.42-13.88 48.42-12.78 44.52-12.78L44.52-12.78 40.12-12.78 40.12 0 35.77 0 35.77-34.43 44.57-34.43Q50.72-34.43 54.28-31.84 57.85-29.25 57.85-23.85ZM75.05-26.88L75.05-26.88Q78.77-26.88 81.28-25.19 83.8-23.5 85.06-20.43 86.32-17.35 86.32-13.18L86.32-13.18Q86.32-9.15 85.02-6.05 83.72-2.95 81.21-1.19 78.7 0.58 75 0.58L75 0.58Q71.3 0.58 68.77-1.13 66.25-2.83 64.96-5.91 63.67-9 63.67-13.13L63.67-13.13Q63.67-17.2 64.97-20.3 66.27-23.4 68.81-25.14 71.34-26.88 75.05-26.88ZM75.05-23.45L75.05-23.45Q71.65-23.45 69.91-20.94 68.17-18.43 68.17-13.13L68.17-13.13Q68.17-7.93 69.88-5.4 71.59-2.88 75-2.88L75-2.88Q78.4-2.88 80.11-5.4 81.82-7.93 81.82-13.18L81.82-13.18Q81.82-18.43 80.12-20.94 78.42-23.45 75.05-23.45ZM103.97-2.9L103.97-2.9Q106.99-2.9 108.76-4.04 110.52-5.18 110.52-7.08L110.52-7.08Q110.52-8.28 110.08-9.15 109.64-10.03 108.29-10.73 106.94-11.43 104.14-12.13L104.14-12.13Q101.42-12.8 99.41-13.69 97.39-14.58 96.28-16 95.17-17.43 95.17-19.7L95.17-19.7Q95.17-21.93 96.43-23.54 97.69-25.15 99.94-26.01 102.19-26.88 105.17-26.88L105.17-26.88Q108.34-26.88 110.71-26.04 113.07-25.2 114.72-23.98L114.72-23.98 112.87-21.13Q111.37-22.15 109.57-22.81 107.77-23.48 105.22-23.48L105.22-23.48Q102.12-23.48 100.82-22.51 99.52-21.55 99.52-20.03L99.52-20.03Q99.52-18.88 100.16-18.11 100.79-17.35 102.32-16.74 103.84-16.13 106.52-15.4L106.52-15.4Q109.09-14.73 111.01-13.78 112.92-12.83 113.99-11.28 115.07-9.73 115.07-7.28L115.07-7.28Q115.07-4.48 113.47-2.74 111.87-1 109.33-0.21 106.79 0.58 103.97 0.58L103.97 0.58Q100.39 0.58 97.88-0.46 95.37-1.5 93.67-2.98L93.67-2.98 96.07-5.75Q97.62-4.48 99.63-3.69 101.64-2.9 103.97-2.9ZM144.29-4.17L145.92-1.33Q144.56-0.43 142.64 0.08 140.72 0.58 138.87 0.58L138.87 0.58Q134.62 0.58 132.31-1.65 130.02-3.88 130.02-7.38L130.02-7.38 130.02-23.08 123.97-23.08 123.97-26.33 130.02-26.33 130.02-32.3 134.22-32.8 134.22-26.33 143.31-26.33 142.81-23.08 134.22-23.08 134.22-7.43Q134.22-5.23 135.38-4.08 136.54-2.93 139.24-2.93L139.24-2.93Q140.72-2.93 141.97-3.28 143.22-3.63 144.29-4.17L144.29-4.17ZM173.86-18.38L173.86-5.75Q173.86-4.17 174.39-3.45 174.91-2.73 176.01-2.38L176.01-2.38 174.99 0.58Q173.29 0.35 172.01-0.51 170.74-1.38 170.16-3.13L170.16-3.13Q168.74-1.3 166.61-0.36 164.49 0.58 161.91 0.58L161.91 0.58Q157.96 0.58 155.69-1.65 153.41-3.88 153.41-7.55L153.41-7.55Q153.41-11.63 156.59-13.8 159.76-15.98 165.76-15.98L165.76-15.98 169.64-15.98 169.64-18.18Q169.64-21.03 167.98-22.21 166.31-23.4 163.36-23.4L163.36-23.4Q162.06-23.4 160.31-23.09 158.56-22.78 156.51-22.05L156.51-22.05 155.41-25.23Q157.84-26.13 159.96-26.5 162.09-26.88 164.01-26.88L164.01-26.88Q168.94-26.88 171.4-24.59 173.86-22.3 173.86-18.38L173.86-18.38ZM162.99-2.63L162.99-2.63Q164.94-2.63 166.71-3.61 168.49-4.6 169.64-6.35L169.64-6.35 169.64-13.13 165.84-13.13Q161.49-13.13 159.7-11.63 157.91-10.13 157.91-7.6L157.91-7.6Q157.91-5.15 159.18-3.89 160.44-2.63 162.99-2.63ZM198.91 0L185.26 0 185.26-3.23 189.36-3.23 189.36-23.1 185.26-23.1 185.26-26.33 192.56-26.33 193.34-20.1Q194.86-23.35 197.04-25.13 199.21-26.9 202.79-26.9L202.79-26.9Q203.89-26.9 204.75-26.74 205.61-26.58 206.51-26.33L206.51-26.33 205.29-22.58Q204.46-22.8 203.79-22.91 203.11-23.03 202.24-23.03L202.24-23.03Q199.21-23.03 197.04-20.88 194.86-18.73 193.56-14.38L193.56-14.38 193.56-3.23 198.91-3.23 198.91 0ZM205.91-17.43L202.46-17.43 202.46-23.15 202.89-26.33 206.51-26.33 205.91-17.43ZM233.86-18.38L233.86-5.75Q233.86-4.17 234.38-3.45 234.91-2.73 236.01-2.38L236.01-2.38 234.98 0.58Q233.28 0.35 232.01-0.51 230.73-1.38 230.16-3.13L230.16-3.13Q228.73-1.3 226.61-0.36 224.48 0.58 221.91 0.58L221.91 0.58Q217.96 0.58 215.68-1.65 213.41-3.88 213.41-7.55L213.41-7.55Q213.41-11.63 216.58-13.8 219.76-15.98 225.76-15.98L225.76-15.98 229.63-15.98 229.63-18.18Q229.63-21.03 227.97-22.21 226.31-23.4 223.36-23.4L223.36-23.4Q222.06-23.4 220.31-23.09 218.56-22.78 216.51-22.05L216.51-22.05 215.41-25.23Q217.83-26.13 219.96-26.5 222.08-26.88 224.01-26.88L224.01-26.88Q228.93-26.88 231.4-24.59 233.86-22.3 233.86-18.38L233.86-18.38ZM222.98-2.63L222.98-2.63Q224.93-2.63 226.71-3.61 228.48-4.6 229.63-6.35L229.63-6.35 229.63-13.13 225.83-13.13Q221.48-13.13 219.7-11.63 217.91-10.13 217.91-7.6L217.91-7.6Q217.91-5.15 219.17-3.89 220.43-2.63 222.98-2.63ZM262.36-26.88L262.36-26.88Q263.63-26.88 264.79-26.33 265.96-25.78 266.71-24.2 267.46-22.63 267.46-19.6L267.46-19.6 267.46 0 263.56 0 263.56-18.93Q263.56-21.4 263.25-22.5 262.96-23.6 261.53-23.6L261.53-23.6Q260.36-23.6 259.19-22.86 258.03-22.13 256.93-20.45L256.93-20.45 256.93 0 253.01 0 253.01-18.93Q253.01-21.4 252.71-22.5 252.41-23.6 250.98-23.6L250.98-23.6Q249.76-23.6 248.62-22.86 247.48-22.13 246.38-20.45L246.38-20.45 246.38 0 242.51 0 242.51-26.33 245.81-26.33 246.06-23.28Q247.13-24.8 248.47-25.84 249.81-26.88 251.78-26.88L251.78-26.88Q253.28-26.88 254.61-26.16 255.93-25.45 256.56-23.4L256.56-23.4Q257.63-24.95 258.98-25.91 260.33-26.88 262.36-26.88ZM293.85-18.38L293.85-5.75Q293.85-4.17 294.38-3.45 294.9-2.73 296-2.38L296-2.38 294.98 0.58Q293.28 0.35 292-0.51 290.73-1.38 290.15-3.13L290.15-3.13Q288.73-1.3 286.6-0.36 284.48 0.58 281.9 0.58L281.9 0.58Q277.95 0.58 275.68-1.65 273.4-3.88 273.4-7.55L273.4-7.55Q273.4-11.63 276.58-13.8 279.75-15.98 285.75-15.98L285.75-15.98 289.63-15.98 289.63-18.18Q289.63-21.03 287.97-22.21 286.3-23.4 283.35-23.4L283.35-23.4Q282.05-23.4 280.3-23.09 278.55-22.78 276.5-22.05L276.5-22.05 275.4-25.23Q277.83-26.13 279.95-26.5 282.08-26.88 284-26.88L284-26.88Q288.93-26.88 291.39-24.59 293.85-22.3 293.85-18.38L293.85-18.38ZM282.98-2.63L282.98-2.63Q284.93-2.63 286.7-3.61 288.48-4.6 289.63-6.35L289.63-6.35 289.63-13.13 285.83-13.13Q281.48-13.13 279.69-11.63 277.9-10.13 277.9-7.6L277.9-7.6Q277.9-5.15 279.17-3.89 280.43-2.63 282.98-2.63Z" opacity="1" transform="matrix(1,0,0,1,0,0)" fill="#EF5B2A" class="wordmark-text-0" data-fill-palette-color="primary" id="text-0"/>
                            </svg>
                          </g>
                        </svg>
                      </g>
                      <g transform="matrix(1,0,0,1,75.54432,58.32551268240307)">
                        <svg viewBox="0 0 244.43135999999998 15.450906686850617" height="15.450906686850617" width="244.43135999999998">
                          <g transform="matrix(1,0,0,1,8,0)">
                            <svg width="228.43135999999998" viewBox="0.75 -37.8 726.57 49.15" height="15.450906686850617" data-palette-color="#ef5b2a">
                              <path d="M15.85-1.2L13.05 0.5 9.65 1 6.1-0.2 4.5-4.2 4.75-13.5 4.5-21.9 1.05-22.4 0.75-24.15 4.7-25.2 6.5-30.25 9.05-30.25 8.9-24.65 14.95-24.45 14.65-22.25 9.4-21.9 9.2-19.6 9.4-4.45 10.4-1.45 15.1-2.7 15.85-1.2ZM25.8-37.25L25.55-30.45 25.4-22.25 30.95-25.65 36.05-26 40.65-22.85 41.4-18.85 41.3-8.3 41.7-2.45 45.25-1.5 45 0.25 39.1 0 33 0.25 33.1-1.5 36.4-2.5 36.75-7.75 36.55-18.65 35.2-21.95 30.95-22.7 25.35-19.85 25.25-13.15 25.35-8.3 25.5-2.5 29.15-1.5 28.9 0.25 23 0 16.9 0.25 17-1.5 20.3-2.5 20.75-7.75 20.55-29.65 20.2-34.85 16.65-34.7 16.4-36.45 23.3-37.8 25.8-37.25ZM61.65-12.9L53-13.45 52.95-13 54.3-5.95 58.25-2.05 62.84-1.55 67.55-4.05 68.45-2.75 64.5 0.4 59.8 1 54.9-0.15 50.65-3.7 48.09-11.2 48.95-17.9 51.55-22.6 56.8-25.5 61.2-26.05 64.7-24.95 67.4-22.5 68.95-18.05 69-13.9 68.3-13.35 61.65-12.9ZM59.3-23.8L55.5-21.55 53.55-17.75 53.25-15.5 60.84-15.4 64.3-16.15 64-20.8 62.5-23.35 59.3-23.8ZM92.94-24.95L92.59-18.15 92.29-13.15 92.44-8.3 92.64-2.5 96.29-1.5 96.04 0.25 90.14 0 84.04 0.25 84.14-1.5 87.44-2.5 87.69-7.75 87.59-17.35 87.34-22.55 83.79-22.4 83.54-24.15 90.44-25.5 92.94-24.95ZM85.89-34.4L87.04-36.25 89.29-37.3 91.59-36.55 92.64-33.95 91.29-31.85 89.04-30.95 86.94-32.25 85.89-34.4ZM118.24 0.7L117.29-2.25 117.04-2.25 111.49 1 105.94 0.4 102.29-2.2 99.39-8.15 99.34-16.65 101.24-20.6 106.99-25.25 112.54-26 117.39-24.75 117.09-34.3 112.94-34.7 113.19-36.45 120.09-37.8 122.09-37.25 121.74-17.9 122.09-2.05 125.54-1.55 125.19 0.1 118.24 0.7ZM105.64-4.6L109.94-1.55 117.29-4.35 117.39-22 111.84-23.75 108.69-22.85 104.84-18.75 104.14-13 105.64-4.6ZM142.04-12.9L133.39-13.45 133.34-13 134.69-5.95 138.64-2.05 143.24-1.55 147.94-4.05 148.84-2.75 144.89 0.4 140.19 1 135.29-0.15 131.04-3.7 128.49-11.2 129.34-17.9 131.94-22.6 137.19-25.5 141.59-26.05 145.09-24.95 147.79-22.5 149.34-18.05 149.39-13.9 148.69-13.35 142.04-12.9ZM139.69-23.8L135.89-21.55 133.94-17.75 133.64-15.5 141.24-15.4 144.69-16.15 144.39-20.8 142.89-23.35 139.69-23.8ZM171.58-19.8L171.63-9.1 171.98-2.05 175.43-1.55 175.08 0.1 168.13 0.7 167.48-2.25 167.23-2.25 162.28 0.7 157.08 0.7 153.58-1.85 152.53-6.75 154.73-10.65 160.73-13.25 167.33-13.5 167.13-19.75 166.18-22.85 162.13-24 157.28-22.85 157.13-17.55 155.18-17.15 153.88-24 159.63-25.7 166.08-26 169.98-24.1 171.58-19.8ZM157.38-6.85L158.73-2.8 162.48-1.85 167.53-4.75 167.33-11.5 162.98-11.5 159.13-9.95 157.38-6.85ZM203.43-12.9L194.78-13.45 194.73-13 196.08-5.95 200.03-2.05 204.63-1.55 209.33-4.05 210.23-2.75 206.28 0.4 201.58 1 196.68-0.15 192.43-3.7 189.88-11.2 190.73-17.9 193.33-22.6 198.58-25.5 202.98-26.05 206.48-24.95 209.18-22.5 210.73-18.05 210.78-13.9 210.08-13.35 203.43-12.9ZM201.08-23.8L197.28-21.55 195.33-17.75 195.03-15.5 202.63-15.4 206.08-16.15 205.78-20.8 204.28-23.35 201.08-23.8ZM216.83-2.5L224.18-11.65 218.63-19.8 216.28-22.65 212.93-23.5 213.18-25.25 219.28-25 225.73-25.25 225.63-23.5 222.28-22.7 223.08-20.8 226.93-14.95 227.13-14.95 228.83-17.45 231.28-20.5 232.48-22.65 228.93-23.5 229.18-25.25 234.63-25 239.88-25.25 239.78-23.5 236.68-22.65 234.33-20.25 228.68-13.25 236.08-2.5 239.43-1.5 239.18 0.25 233.58 0 227.48 0.25 227.58-1.5 230.18-2.3 228.98-4.85 226.53-8.25 225.48-9.8 225.33-9.8 221.88-4.8 220.38-2.35 223.38-1.5 223.13 0.25 218.23 0 213.13 0.25 213.23-1.5 216.83-2.5ZM259.87-16.9L258.97-23.15 252.67-23.65 248.17-18.85 246.87-13.65 247.52-8.35 250.72-2.55 256.87-1.55 261.57-4.05 262.47-2.75 258.52 0.4 253.82 1 246.67-1.05 242.22-8.3 242.17-16.65 245.57-22.6 250.82-25.35 255.37-26 263.02-25 261.52-17.15 259.87-16.9ZM273.92-37.25L273.67-30.45 273.52-22.25 279.07-25.65 284.17-26 288.77-22.85 289.52-18.85 289.42-8.3 289.82-2.45 293.37-1.5 293.12 0.25 287.22 0 281.12 0.25 281.22-1.5 284.52-2.5 284.87-7.75 284.67-18.65 283.32-21.95 279.07-22.7 273.47-19.85 273.37-13.15 273.47-8.3 273.62-2.5 277.27-1.5 277.02 0.25 271.12 0 265.02 0.25 265.12-1.5 268.42-2.5 268.87-7.75 268.67-29.65 268.32-34.85 264.77-34.7 264.52-36.45 271.42-37.8 273.92-37.25ZM314.57-19.8L314.62-9.1 314.97-2.05 318.42-1.55 318.07 0.1 311.12 0.7 310.47-2.25 310.22-2.25 305.27 0.7 300.07 0.7 296.57-1.85 295.52-6.75 297.72-10.65 303.72-13.25 310.32-13.5 310.12-19.75 309.17-22.85 305.12-24 300.27-22.85 300.12-17.55 298.17-17.15 296.87-24 302.62-25.7 309.07-26 312.97-24.1 314.57-19.8ZM300.37-6.85L301.72-2.8 305.47-1.85 310.52-4.75 310.32-11.5 305.97-11.5 302.12-9.95 300.37-6.85ZM344.82-8.3L345.22-2.45 348.77-1.5 348.52 0.25 342.62 0 336.52 0.25 336.62-1.5 339.92-2.5 340.27-7.75 340.07-18.65 338.72-21.95 334.47-22.7 329.02-19.9 328.92-18.15 328.62-13.15 328.72-8.3 328.97-2.5 332.62-1.5 332.37 0.25 326.47 0 320.37 0.25 320.47-1.5 323.77-2.5 324.12-7.75 323.67-22.55 320.12-22.4 319.87-24.15 326.77-25.5 329.27-24.95 329.12-22.4 334.47-25.65 339.57-26 344.17-22.85 344.92-18.85 344.82-8.3ZM367.11-24.5L373.51-28.7 375.11-25.35 373.01-24.05 368.86-23.5 372.36-19.2 372.31-14.35 369.51-10.2 363.41-8.2 358.11-8.95 357.21-7.65 357.01-6.25 358.41-5.35 367.01-4 370.36-3.25 373.71-0.85 374.11 5.1 371.81 8.55 366.21 11.1 358.31 11.35 354.86 10.3 352.01 7.8 350.96 4.2 352.46-0.15 355.86-1.75 354.06-3.45 354.06-6.9 356.31-9.55 352.06-12.85 351.56-19.2 355.71-24 362.06-25.5 367.11-24.5ZM357.36-12.15L360.66-10.35 364.76-10.9 367.41-13.75 367.81-18.65 365.61-22.4 361.96-23.5 357.16-21.5 355.76-17.1 357.36-12.15ZM370.31 2.05L363.36-0.3 357.56-1.1 355.31 1.35 355.01 5.05 357.26 8.3 362.91 9.15 368.86 6.9 370.31 2.05ZM390.81-12.9L382.16-13.45 382.11-13 383.46-5.95 387.41-2.05 392.01-1.55 396.71-4.05 397.61-2.75 393.66 0.4 388.96 1 384.06-0.15 379.81-3.7 377.26-11.2 378.11-17.9 380.71-22.6 385.96-25.5 390.36-26.05 393.86-24.95 396.56-22.5 398.11-18.05 398.16-13.9 397.46-13.35 390.81-12.9ZM388.46-23.8L384.66-21.55 382.71-17.75 382.41-15.5 390.01-15.4 393.46-16.15 393.16-20.8 391.66-23.35 388.46-23.8ZM420.66-37.25L420.06-22.85 420.41-22.5 425.61-25.35 431.06-25.5 436.36-21.45 438.46-13.1 436.96-5.65 433.36-1.1 426.16 1 416.71-0.25 414.96-2 415.36-18.5 415.31-29.85 415.06-34.85 411.51-34.7 411.26-36.45 418.16-37.8 420.66-37.25ZM420.06-20.1L419.96-7.65 420.36-3 426.86-1.55 431.81-4.65 433.26-10.15 433.06-16.75 429.51-21.9 426.41-22.65 420.06-20.1ZM449.85-24.95L449.55-17.25 449.55-6.35 450.9-3.05 455.1-2.5 460.55-5.75 460.55-11.05 460.5-17.3 460.25-22.5 456.7-22.35 456.45-24.1 463.35-25.45 465.85-24.9 465.5-18.1 465.45-14.1 465.55-11.05 465.55-2.05 469.05-1.05 468.8 0.7 461.95 0.7 460.8-3.5 455.15 0.65 450.05 1 445.45-2.15 444.7-6.15 444.75-16.85 444.25-22.55 440.7-22.4 440.45-24.15 447.35-25.5 449.85-24.95ZM476.9 0L470.8 0.25 470.9-1.5 474.2-2.5 474.45-7.75 474.65-18.7 474.35-29.85 474.1-34.85 470.55-34.7 470.3-36.45 477.2-37.8 479.7-37.25 479.35-30.65 479.05-13.15 479.2-8.3 479.6-2.5 483.25-1.5 483 0.25 476.9 0ZM490.85 0L484.75 0.25 484.85-1.5 488.15-2.5 488.4-7.75 488.6-18.7 488.3-29.85 488.05-34.85 484.5-34.7 484.25-36.45 491.15-37.8 493.65-37.25 493.3-30.65 493-13.15 493.15-8.3 493.55-2.5 497.2-1.5 496.95 0.25 490.85 0ZM513.4-12.9L504.75-13.45 504.7-13 506.05-5.95 510-2.05 514.6-1.55 519.3-4.05 520.2-2.75 516.25 0.4 511.55 1 506.65-0.15 502.4-3.7 499.85-11.2 500.7-17.9 503.3-22.6 508.55-25.5 512.95-26.05 516.45-24.95 519.15-22.5 520.7-18.05 520.75-13.9 520.05-13.35 513.4-12.9ZM511.05-23.8L507.25-21.55 505.3-17.75 505-15.5 512.6-15.4 516.05-16.15 515.75-20.8 514.25-23.35 511.05-23.8ZM538.39-1.2L535.59 0.5 532.19 1 528.64-0.2 527.04-4.2 527.29-13.5 527.04-21.9 523.59-22.4 523.29-24.15 527.24-25.2 529.04-30.25 531.59-30.25 531.44-24.65 537.49-24.45 537.19-22.25 531.94-21.9 531.74-19.6 531.94-4.45 532.94-1.45 537.64-2.7 538.39-1.2ZM548.99-24.95L548.64-18.15 548.34-13.15 548.49-8.3 548.69-2.5 552.34-1.5 552.09 0.25 546.19 0 540.09 0.25 540.19-1.5 543.49-2.5 543.74-7.75 543.64-17.35 543.39-22.55 539.84-22.4 539.59-24.15 546.49-25.5 548.99-24.95ZM541.94-34.4L543.09-36.25 545.34-37.3 547.64-36.55 548.69-33.95 547.34-31.85 545.09-30.95 542.99-32.25 541.94-34.4ZM579.04-8.3L579.44-2.45 582.99-1.5 582.74 0.25 576.84 0 570.74 0.25 570.84-1.5 574.14-2.5 574.49-7.75 574.29-18.65 572.94-21.95 568.69-22.7 563.24-19.9 563.14-18.15 562.84-13.15 562.94-8.3 563.19-2.5 566.84-1.5 566.59 0.25 560.69 0 554.59 0.25 554.69-1.5 557.99-2.5 558.34-7.75 557.89-22.55 554.34-22.4 554.09-24.15 560.99-25.5 563.49-24.95 563.34-22.4 568.69-25.65 573.79-26 578.39-22.85 579.14-18.85 579.04-8.3ZM604.03-37.25L603.43-22.85 603.78-22.5 608.98-25.35 614.43-25.5 619.73-21.45 621.83-13.1 620.33-5.65 616.73-1.1 609.53 1 600.08-0.25 598.33-2 598.73-18.5 598.68-29.85 598.43-34.85 594.88-34.7 594.63-36.45 601.53-37.8 604.03-37.25ZM603.43-20.1L603.33-7.65 603.73-3 610.23-1.55 615.18-4.65 616.63-10.15 616.43-16.75 612.88-21.9 609.78-22.65 603.43-20.1ZM627.38-4.55L625.73-9.5 625.73-16.05 628.68-22 634.33-25.75 641.18-26 647.43-22.25 650.68-16.25 650.08-7.1 646.38-1.2 638.63 1 632.13-0.25 627.38-4.55ZM634.38-23.2L631.23-17.75 630.98-12.15 631.58-6.35 633.73-2.6 639.03-1.3 643.93-3.45 645.38-11.25 644.88-17.75 643.03-21.9 639.38-23.75 634.38-23.2ZM672.98-19.8L673.03-9.1 673.38-2.05 676.83-1.55 676.48 0.1 669.53 0.7 668.88-2.25 668.63-2.25 663.68 0.7 658.48 0.7 654.98-1.85 653.93-6.75 656.13-10.65 662.13-13.25 668.73-13.5 668.53-19.75 667.58-22.85 663.53-24 658.68-22.85 658.53-17.55 656.58-17.15 655.28-24 661.03-25.7 667.48-26 671.38-24.1 672.98-19.8ZM658.78-6.85L660.13-2.8 663.88-1.85 668.93-4.75 668.73-11.5 664.38-11.5 660.53-9.95 658.78-6.85ZM687.67-24.95L687.47-20.9 687.67-20.9 690.77-24.45 694.17-25.95 697.92-25 697.07-17.55 695.32-17.9 694.07-23.05 690.82-22 687.27-17.85 687.02-13.15 687.17-8.3 687.37-2.5 692.37-1.5 692.12 0.25 684.87 0 678.77 0.25 678.87-1.5 682.17-2.5 682.42-7.75 682.32-17.35 682.07-22.55 678.52-22.4 678.27-24.15 685.17-25.5 687.67-24.95ZM720.02 0.7L719.07-2.25 718.82-2.25 713.27 1 707.72 0.4 704.07-2.2 701.17-8.15 701.12-16.65 703.02-20.6 708.77-25.25 714.32-26 719.17-24.75 718.87-34.3 714.72-34.7 714.97-36.45 721.87-37.8 723.87-37.25 723.52-17.9 723.87-2.05 727.32-1.55 726.97 0.1 720.02 0.7ZM707.42-4.6L711.72-1.55 719.07-4.35 719.17-22 713.62-23.75 710.47-22.85 706.62-18.75 705.92-13 707.42-4.6Z" opacity="1" transform="matrix(1,0,0,1,0,0)" fill="#EF5B2A" class="slogan-text-1" data-fill-palette-color="secondary" id="text-1"/>
                            </svg>
                          </g>
                        </svg>
                      </g>
                    </svg>
                  </g>
                </svg>
              </g>
              <g>
                <svg viewBox="0 0 105.71110571765956 105.71110571765956" height="105.71110571765956" width="105.71110571765956">
                  <g>
                    <svg/>
                  </g>
                  <g id="icon-0">
                    <svg viewBox="0 0 105.71110571765956 105.71110571765956" height="105.71110571765956" width="105.71110571765956">
                      <g>
                        <path d="M0 52.856c0-29.191 23.664-52.856 52.856-52.856 29.191 0 52.856 23.664 52.855 52.856 0 29.191-23.664 52.856-52.855 52.855-29.191 0-52.856-23.664-52.856-52.855zM52.856 101.456c26.841 0 48.6-21.759 48.6-48.6 0-26.841-21.759-48.6-48.6-48.601-26.841 0-48.6 21.759-48.601 48.601 0 26.841 21.759 48.6 48.601 48.6z" data-fill-palette-color="tertiary" fill="#000000" stroke="transparent"/>
                      </g>
                      <g transform="matrix(1,0,0,1,22.51894532553073,41.487418868993714)">
                        <svg viewBox="0 0 60.673215066598104 22.73626797967214" height="22.73626797967214" width="60.673215066598104">
                          <g>
                            <svg xmlns="http://www.w3.org/2000/svg" data-name="Layer 1" viewBox="4.936880946371855 33.138179751883925 90.0824923111584 33.7569005238161" x="0" y="0" height="22.73626797967214" width="60.673215066598104" class="icon-dxe-0" data-fill-palette-color="accent" id="dxe-0">
                              <g data-name="Shape 92" fill="#301c3b" data-fill-palette-color="accent">
                                <path class="cls-1" d="M95 40A3.83 3.83 0 0 1 94.06 42.92 18 18 0 0 1 71.9 48.27 3.7 3.7 0 0 0 68.03 48.93 13.8 13.8 0 0 0 65.44 52.16 34.23 34.23 0 0 1 41.92 66.63 34.23 34.23 0 0 1 15.47 58.72C13.95 57.41 11.82 55.87 10.16 57.01 9.16 57.68 8.93 59.01 8.47 60.01S6.85 62.17 5.78 61.68C4.47 61.14 4.91 59.2 5.6 58A49.65 49.65 0 0 1 23.54 39.24 43.3 43.3 0 0 1 48.67 33.24C56.67 33.85 64.23 36.8 71.52 40.09A33.8 33.8 0 0 0 78.61 42.71 10.4 10.4 0 0 0 86 41.74C87.58 40.8 88.8 39.3 90.48 38.53S94.61 38.23 95 40M50.89 55.53A14.2 14.2 0 0 1 46.18 58.86C41.18 61.18 35.18 61.57 30.28 59.02S22.18 50.69 23.41 45.33A32.8 32.8 0 0 0 12.35 54.28C15.2 55.61 17.61 57.71 20.29 59.35A30.38 30.38 0 0 0 45.41 62 34.53 34.53 0 0 0 64.7 45.42 64.5 64.5 0 0 0 51.91 41C54.29 45.58 54.31 51.67 50.89 55.53" fill="#EF5B2A" data-fill-palette-color="accent"/>
                              </g>
                            </svg>
                          </g>
                        </svg>
                      </g>
                    </svg>
                  </g>
                </svg>
              </g>
            </svg>
          </g>
          <defs/>
        </svg>
        <rect width="395.52" height="79.86638270853688" fill="none" stroke="none" visibility="hidden"/>
      </g>
    </svg>
  </g>
</svg>